<svg width="189" height="156" viewBox="0 0 189 156" fill="none" xmlns="http://www.w3.org/2000/svg">
<path fill-rule="evenodd" clip-rule="evenodd" d="M116.334 0C119.741 0 122.503 2.72655 122.503 5.93295V21.0053C122.502 24.3718 119.741 27.0965 116.334 27.0965H36.5059C33.099 27.0967 30.34 29.6629 30.3397 33.0295V42.3271C30.3397 45.694 33.0987 48.4207 36.5059 48.4209H63.5921C63.8467 48.3862 64.1049 48.3622 64.3671 48.3622H159.121C175.578 48.3628 189 61.5376 189 77.6925V92.7521C188.999 108.907 175.578 122.082 159.121 122.082H94.4051C91.05 122.083 88.3351 124.75 88.3351 128.043V133.532C88.3352 136.826 91.0501 139.493 94.4051 139.493H180.051C183.407 139.493 185.965 142.159 185.965 145.296V160.039C185.965 163.333 183.407 166 180.051 166H88.3351C71.8771 166 58.4531 152.824 58.4531 136.511V125.062C58.4532 123.424 58.5989 121.818 58.864 120.252H6.00239C2.75727 120.252 0 117.525 0 114.158V5.93295C0.000419103 2.72655 2.75752 0 6.00239 0H116.334ZM35.0599 74.5039C31.6525 74.5039 30.3397 78.0859 30.3397 81.4529V87.0617C30.3398 90.4285 33.0988 95.4169 36.5059 95.4173H111.848C112.63 95.4173 113.4 95.5283 114.124 95.7313H153.048C156.403 95.7312 159.121 93.0641 159.121 89.7703V80.6743C159.121 77.3805 156.403 74.8692 153.048 74.869H64.3671C63.671 74.869 63 74.7358 62.3724 74.5039H35.0599Z" fill="#E9D99E"/>
</svg>
